<svg xmlns="http://www.w3.org/2000/svg" xmlns:xlink="http://www.w3.org/1999/xlink" width="1034" zoomAndPan="magnify" viewBox="0 0 775.5 683.999997" height="912" preserveAspectRatio="xMidYMid meet" version="1.0"><defs><clipPath id="e19819f55d"><path d="M 10 196 L 756.261719 196 L 756.261719 534 L 10 534 Z M 10 196 " clip-rule="nonzero"/></clipPath></defs><path fill="#272828" d="M 236.28125 78.777344 C 224.578125 85.539062 212.265625 104.144531 210.820312 144.808594 C 210.410156 154.019531 206.378906 162.699219 199.605469 168.953125 C 192.832031 175.207031 183.863281 178.53125 174.648438 178.207031 C 165.4375 177.878906 156.722656 173.929688 150.40625 167.210938 C 144.089844 160.496094 140.683594 151.554688 140.925781 142.339844 C 142.695312 92.53125 158.457031 42.960938 201.308594 18.199219 C 244.300781 -6.613281 295.265625 4.671875 339.378906 28.175781 C 347.566406 32.542969 353.683594 39.984375 356.382812 48.859375 C 359.085938 57.738281 358.152344 67.324219 353.785156 75.511719 C 349.421875 83.699219 341.980469 89.816406 333.105469 92.519531 C 324.230469 95.222656 314.644531 94.285156 306.457031 89.921875 C 270.414062 70.660156 248.03125 72.058594 236.28125 78.777344 Z M 423.777344 139.355469 C 427.316406 136.425781 431.398438 134.222656 435.789062 132.875 C 440.179688 131.523438 444.792969 131.050781 449.363281 131.484375 C 453.9375 131.917969 458.378906 133.25 462.4375 135.398438 C 466.496094 137.546875 470.089844 140.476562 473.015625 144.015625 C 500.335938 177.160156 524.824219 212.542969 546.226562 249.785156 C 594.71875 333.820312 624.609375 419.90625 632.675781 492.09375 C 636.6875 528.144531 635.472656 562.46875 627.082031 591.890625 C 618.546875 621.503906 602.039062 648.320312 574.34375 664.316406 C 540.816406 683.667969 502.066406 680.964844 466.675781 668.046875 C 431.144531 655.082031 394.539062 630.597656 359.660156 598.746094 C 352.914062 592.46875 348.917969 583.78125 348.542969 574.570312 C 348.167969 565.363281 351.441406 556.375 357.652344 549.570312 C 363.863281 542.761719 372.511719 538.679688 381.714844 538.210938 C 390.917969 537.746094 399.933594 540.933594 406.804688 547.078125 C 437.578125 575.152344 466.441406 593.523438 490.597656 602.292969 C 514.9375 611.152344 530.230469 609.054688 539.371094 603.738281 C 547.019531 599.308594 554.757812 590.308594 559.792969 572.632812 C 564.921875 554.726562 566.554688 530.195312 563.152344 499.882812 C 556.390625 439.304688 530.511719 362.453125 485.605469 284.757812 C 466.175781 250.957031 443.945312 218.835938 419.160156 188.738281 C 416.234375 185.199219 414.03125 181.117188 412.683594 176.726562 C 411.332031 172.335938 410.859375 167.722656 411.292969 163.148438 C 411.726562 158.578125 413.054688 154.132812 415.207031 150.074219 C 417.355469 146.015625 420.285156 142.421875 423.824219 139.492188 " fill-opacity="1" fill-rule="nonzero"/><g clip-path="url(#e19819f55d)"><path fill="#272828" d="M 686.253906 350.839844 C 686.253906 337.316406 676.277344 317.308594 641.816406 295.8125 C 637.921875 293.378906 634.539062 290.199219 631.871094 286.457031 C 629.199219 282.71875 627.292969 278.488281 626.257812 274.011719 C 625.222656 269.53125 625.082031 264.894531 625.839844 260.363281 C 626.597656 255.828125 628.238281 251.488281 630.671875 247.589844 C 635.589844 239.71875 643.429688 234.121094 652.472656 232.03125 C 656.949219 230.996094 661.585938 230.855469 666.117188 231.613281 C 670.652344 232.371094 674.988281 234.011719 678.886719 236.445312 C 721.132812 262.886719 756.199219 301.3125 756.199219 350.839844 C 756.199219 400.457031 720.945312 438.980469 678.515625 465.421875 C 670.648438 470.140625 661.242188 471.582031 652.324219 469.433594 C 643.402344 467.28125 635.6875 461.710938 630.835938 453.921875 C 625.984375 446.136719 624.386719 436.753906 626.390625 427.796875 C 628.390625 418.84375 633.832031 411.035156 641.535156 406.054688 C 676.230469 384.417969 686.253906 364.363281 686.253906 350.839844 Z M 539.980469 482.910156 C 540.75 487.4375 540.617188 492.074219 539.59375 496.550781 C 538.570312 501.03125 536.675781 505.261719 534.019531 509.007812 C 531.359375 512.753906 527.988281 515.941406 524.101562 518.382812 C 520.210938 520.828125 515.875 522.480469 511.347656 523.246094 C 468.984375 530.289062 426.109375 533.78125 383.164062 533.695312 C 286.175781 533.695312 196.648438 516.578125 130.109375 487.433594 C 96.863281 472.929688 67.8125 454.695312 46.550781 432.683594 C 25.054688 410.578125 10.132812 382.785156 10.132812 350.839844 C 10.132812 312.132812 31.863281 279.957031 60.726562 255.707031 C 89.726562 231.410156 129.269531 211.960938 174.265625 197.691406 C 183.109375 194.886719 192.703125 195.707031 200.941406 199.972656 C 205.019531 202.085938 208.644531 204.984375 211.601562 208.496094 C 214.5625 212.007812 216.800781 216.074219 218.191406 220.449219 C 219.582031 224.828125 220.097656 229.4375 219.703125 234.015625 C 219.3125 238.59375 218.023438 243.050781 215.910156 247.128906 C 213.796875 251.207031 210.902344 254.832031 207.390625 257.792969 C 203.875 260.75 199.816406 262.988281 195.4375 264.378906 C 155.800781 276.972656 125.398438 292.78125 105.722656 309.335938 C 85.859375 325.9375 80.074219 340.253906 80.074219 350.839844 C 80.074219 359.699219 84.039062 370.894531 96.816406 384.089844 C 109.777344 397.472656 130.203125 411.140625 158.132812 423.355469 C 213.949219 447.792969 293.449219 463.742188 383.164062 463.742188 C 424.433594 463.742188 463.695312 460.382812 499.644531 454.277344 C 504.171875 453.503906 508.808594 453.636719 513.285156 454.660156 C 517.765625 455.683594 521.996094 457.578125 525.742188 460.234375 C 529.488281 462.894531 532.671875 466.265625 535.117188 470.15625 C 537.558594 474.046875 539.210938 478.378906 539.980469 482.910156 Z M 539.980469 482.910156 " fill-opacity="1" fill-rule="nonzero"/></g><path fill="#272828" d="M 237.3125 603.785156 C 248.96875 610.546875 271.304688 611.898438 307.207031 592.824219 C 311.265625 590.671875 315.707031 589.332031 320.28125 588.894531 C 324.851562 588.457031 329.464844 588.921875 333.859375 590.265625 C 338.253906 591.613281 342.335938 593.808594 345.882812 596.730469 C 349.425781 599.65625 352.359375 603.25 354.511719 607.304688 C 356.667969 611.363281 358.003906 615.804688 358.441406 620.378906 C 358.882812 624.953125 358.414062 629.566406 357.070312 633.960938 C 355.726562 638.351562 353.53125 642.4375 350.605469 645.984375 C 347.683594 649.527344 344.09375 652.460938 340.035156 654.617188 C 296.015625 677.980469 245.191406 689.125 202.339844 664.410156 C 159.347656 639.550781 143.585938 589.792969 141.953125 539.800781 C 141.785156 530.617188 145.234375 521.734375 151.558594 515.074219 C 157.882812 508.414062 166.574219 504.507812 175.753906 504.199219 C 184.933594 503.894531 193.867188 507.210938 200.621094 513.4375 C 207.375 519.664062 211.410156 528.292969 211.851562 537.46875 C 213.25 578.277344 225.558594 597.023438 237.3125 603.785156 Z M 196.089844 411.046875 C 187.398438 407.816406 180.34375 401.265625 176.476562 392.835938 C 172.613281 384.40625 172.253906 374.785156 175.480469 366.089844 C 189.5625 328.082031 207.980469 288.816406 230.503906 249.832031 C 278.996094 165.792969 338.589844 96.871094 397.0625 53.78125 C 426.253906 32.28125 456.5625 16.191406 486.265625 8.777344 C 516.152344 1.316406 547.675781 2.203125 575.324219 18.199219 C 608.898438 37.550781 625.871094 72.433594 632.398438 109.601562 C 638.972656 146.859375 636.035156 190.792969 625.871094 236.914062 C 625.050781 241.550781 623.296875 245.976562 620.722656 249.921875 C 618.148438 253.867188 614.800781 257.253906 610.886719 259.875 C 606.972656 262.496094 602.566406 264.296875 597.9375 265.171875 C 593.308594 266.046875 588.546875 265.980469 583.949219 264.96875 C 579.34375 263.960938 574.996094 262.03125 571.15625 259.300781 C 567.316406 256.566406 564.070312 253.085938 561.609375 249.070312 C 559.152344 245.050781 557.527344 240.574219 556.839844 235.914062 C 556.152344 231.253906 556.414062 226.5 557.605469 221.941406 C 566.511719 181.277344 568.003906 147.046875 563.527344 121.679688 C 559.050781 96.214844 549.539062 84.046875 540.398438 78.777344 C 532.753906 74.34375 521.050781 72.152344 503.238281 76.628906 C 485.144531 81.152344 463.136719 92.019531 438.5625 110.113281 C 389.507812 146.210938 335.886719 207.113281 291.074219 284.804688 C 271.464844 318.550781 254.730469 353.882812 241.042969 390.433594 C 237.8125 399.125 231.261719 406.183594 222.835938 410.046875 C 214.40625 413.914062 204.785156 414.269531 196.089844 411.046875 Z M 196.089844 411.046875 " fill-opacity="1" fill-rule="nonzero"/><path fill="#272828" d="M 451.242188 344.3125 C 451.242188 361.132812 444.5625 377.261719 432.667969 389.15625 C 420.777344 401.050781 404.644531 407.734375 387.828125 407.734375 C 371.007812 407.734375 354.878906 401.050781 342.984375 389.15625 C 331.09375 377.261719 324.410156 361.132812 324.410156 344.3125 C 324.410156 327.488281 331.09375 311.359375 342.984375 299.464844 C 354.878906 287.570312 371.007812 280.886719 387.828125 280.886719 C 404.644531 280.886719 420.777344 287.570312 432.667969 299.464844 C 444.5625 311.359375 451.242188 327.488281 451.242188 344.3125 Z M 451.242188 344.3125 " fill-opacity="1" fill-rule="nonzero"/></svg>